<?xml version="1.0" encoding="utf-8"?>
<!-- Generator: Adobe Illustrator 24.0.1, SVG Export Plug-In . SVG Version: 6.00 Build 0)  -->
<svg version="1.1" id="Capa_1" xmlns="http://www.w3.org/2000/svg" xmlns:xlink="http://www.w3.org/1999/xlink" x="0px" y="0px"
	 viewBox="0 0 311.5 311.5" style="enable-background:new 0 0 311.5 311.5;" xml:space="preserve">
<style type="text/css">
	.st0{fill:#FAF9F2;}
	.st1{fill:#717161;}
</style>
<g>
	<rect x="0" y="0" class="st0" width="311.4" height="311.4"/>
	<g>
		<g>
			<path class="st1" d="M23.7,311.4c0-76.6,33.6-88.8,75.6-100.8c15.3,14.3,35.1,22.9,56.7,22.9c21.1,0,40.5-8.2,55.7-21.9
				c42.3,13,72.5,22.8,72.5,99.7C218.8,311.4,59.6,311.4,23.7,311.4z M156,213.3c-10.9,0-21.2-3-30.3-8.2
				c-22-12.5-37.2-38.2-37.2-67.8c0-41.9,30.3-76,67.5-76c37.2,0,67.5,34.1,67.5,76c0,30.1-15.6,56-38.2,68.3
				C176.4,210.5,166.5,213.3,156,213.3z"/>
		</g>
	</g>
</g>
</svg>
