<svg xmlns="http://www.w3.org/2000/svg" width="35.84" height="40.086" viewBox="0 0 35.84 40.086">
  <g id="Path_539" data-name="Path 539" transform="translate(-88.4 2.95)" fill="#144659">
    <path d="M 120.9101486206055 35.63604736328125 L 91.73033905029297 35.63604736328125 C 90.73818969726562 35.63604736328125 89.90000152587891 34.7863883972168 89.90000152587891 33.78067779541016 L 89.90000152587891 17.01898574829102 C 89.90000152587891 16.26369667053223 90.15520477294922 15.57017517089844 90.61908721923828 15.06373405456543 L 94.52474975585938 10.69624996185303 L 94.52474975585938 6.120926380157471 C 94.52474975585938 5.115216732025146 95.36293029785156 4.265556335449219 96.35507202148438 4.265556335449219 L 100.3150863647461 4.265556335449219 L 104.9297943115234 -0.86433345079422 L 105.0385589599609 -0.9852534532546997 L 105.1707305908203 -1.080043435096741 C 105.5033187866211 -1.318598866462708 105.9091186523438 -1.449993491172791 106.3133163452148 -1.449993491172791 C 106.3133392333984 -1.449993491172791 106.3133392333984 -1.449993491172791 106.313362121582 -1.449993491172791 C 106.8206176757812 -1.449993491172791 107.3038482666016 -1.243113398551941 107.6391448974609 -0.8823834657669067 L 107.6458587646484 -0.8751534223556519 L 107.6524887084961 -0.8678334355354309 L 122.0221710205078 15.00541687011719 L 122.0706634521484 15.05897617340088 L 122.1137847900391 15.11695671081543 C 122.5354995727539 15.684006690979 122.7405014038086 16.28679656982422 122.7405014038086 16.95975685119629 L 122.7405014038086 33.78067779541016 C 122.7405014038086 34.7863883972168 121.9022979736328 35.63604736328125 120.9101486206055 35.63604736328125 Z" stroke="none"/>
    <path d="M 106.313362121582 0.0500030517578125 C 106.2238998413086 0.0500030517578125 106.1275482177734 0.07961654663085938 106.0449676513672 0.1388473510742188 L 101.0899047851562 5.647096633911133 C 101.0348281860352 5.706327438354492 100.9247283935547 5.765556335449219 100.8696899414062 5.765556335449219 L 96.35507202148438 5.765556335449219 C 96.18991851806641 5.765556335449219 96.02474975585938 5.943246841430664 96.02474975585938 6.120925903320312 L 96.02474975585938 11.15535736083984 C 96.02474975585938 11.27381706237793 95.96968078613281 11.33304595947266 95.91463470458984 11.39226722717285 L 91.73033905029297 16.07132720947266 C 91.51012420654297 16.30823707580566 91.40000152587891 16.66360664367676 91.40000152587891 17.01898574829102 L 91.40000152587891 33.78067779541016 C 91.40000152587891 33.95835494995117 91.56517791748047 34.13604736328125 91.73033905029297 34.13604736328125 L 120.9101486206055 34.13604736328125 C 121.0753021240234 34.13604736328125 121.2405014038086 33.95835494995117 121.2405014038086 33.78067779541016 L 121.2405014038086 16.95975685119629 C 121.2405014038086 16.6043758392334 121.1303939819336 16.30823707580566 120.9101486206055 16.0120964050293 L 106.5404739379883 0.1388473510742188 C 106.4854202270508 0.07961654663085938 106.40283203125 0.0500030517578125 106.313362121582 0.0500030517578125 M 106.313362121582 -2.950004577636719 C 107.2359619140625 -2.950004577636719 108.1196136474609 -2.568641662597656 108.7377319335938 -1.903713226318359 L 108.7512130737305 -1.889202117919922 L 108.7645111083984 -1.874523162841797 L 123.1341934204102 13.99872589111328 L 123.2311706542969 14.10585594177246 L 123.3174133300781 14.22181701660156 C 123.929931640625 15.0454273223877 124.2405014038086 15.96659660339355 124.2405014038086 16.95975685119629 L 124.2405014038086 33.78067779541016 C 124.2405014038086 34.62693786621094 123.9187316894531 35.43911743164062 123.33447265625 36.06759643554688 C 122.703239440918 36.74660491943359 121.8196105957031 37.13604736328125 120.9101486206055 37.13604736328125 L 91.73033905029297 37.13604736328125 C 90.82085418701172 37.13604736328125 89.93719482421875 36.74658584594727 89.30596160888672 36.06752777099609 C 88.72174072265625 35.43905639648438 88.40000152587891 34.62690734863281 88.40000152587891 33.78067779541016 L 88.40000152587891 17.01898574829102 C 88.40000152587891 15.89043045043945 88.79285430908203 14.8402214050293 89.50698089599609 14.05710983276367 L 93.02474975585938 10.12338447570801 L 93.02474975585938 6.120925903320312 C 93.02474975585938 5.274736404418945 93.34647369384766 4.462606430053711 93.93064117431641 3.834136962890625 C 94.56187438964844 3.155036926269531 95.44554901123047 2.765556335449219 96.35507202148438 2.765556335449219 L 99.64682006835938 2.765556335449219 L 103.8146133422852 -1.867523193359375 L 104.0321578979492 -2.109352111816406 L 104.2964782714844 -2.298934936523438 C 104.8818435668945 -2.718784332275391 105.5981216430664 -2.950004577636719 106.313362121582 -2.950004577636719 Z" stroke="none" fill="#faf9f2"/>
  </g>
</svg>
