<svg xmlns="http://www.w3.org/2000/svg" width="10.016" height="18.072" viewBox="0 0 10.016 18.072">
  <path id="Path_735" data-name="Path 735" d="M6.607,12.842a13.057,13.057,0,0,1,3.219,2.31,3.516,3.516,0,0,1,.884,2.421,3.094,3.094,0,0,1-1.476,2.739,6.124,6.124,0,0,1-2.668.889v2.143H4.9V21.282a14,14,0,0,1-1.951-.172,9.118,9.118,0,0,1-1.84-.465L.9,17.825l1.688-.253.849,1.991a7.9,7.9,0,0,0,.91.162q.273.03.556.04V15.248q-.091-.051-.182-.111a12.632,12.632,0,0,1-3.3-2.4,3.39,3.39,0,0,1-.728-2.133A2.84,2.84,0,0,1,2.119,8.071,6.237,6.237,0,0,1,4.9,7.222V5.271H6.567v1.9q.768.03,1.506.131a11.069,11.069,0,0,1,1.759.384l.212,2.931-1.567.222L7.638,8.85a6.234,6.234,0,0,0-.849-.131L6.567,8.7v4.124Zm.768,6.651a2.994,2.994,0,0,0,.212-.606,2.951,2.951,0,0,0,.091-.718,1.9,1.9,0,0,0-.637-1.415,5.458,5.458,0,0,0-.475-.394v3.315A6,6,0,0,0,7.375,19.493ZM3.919,8.951a4.718,4.718,0,0,0-.136.586,3.644,3.644,0,0,0-.056.617,1.493,1.493,0,0,0,.5,1.112,6.065,6.065,0,0,0,.677.526V8.738A6.667,6.667,0,0,0,3.919,8.951Z" transform="translate(-0.694 -5.271)" fill="#144659"/>
</svg>
