<svg xmlns="http://www.w3.org/2000/svg" width="19.228" height="19.881" viewBox="0 0 19.228 19.881"><path d="M-.192,237.5c.047-.041.094-.082.137-.127q2.989-3.072,5.982-6.144c.078-.082.129-.115.215-.008.149.176.313.34.478.5.082.078.07.123,0,.2-.36.365-.716.733-1.077,1.1Q3.408,235.2,1.272,237.4c-.1.106-.106.16,0,.27.756.795,1.5,1.593,2.251,2.4.1.107.149.115.247,0a3.284,3.284,0,0,1,.4-.414c.129-.111.106-.176,0-.283-.231-.229-.446-.475-.677-.709-.07-.07-.074-.115,0-.184.137-.127.254-.352.4-.369s.258.233.388.365c.149.152.294.307.435.463.063.07.1.066.164,0,.117-.127.235-.254.36-.373.078-.074.063-.115,0-.184-.376-.393-.744-.8-1.124-1.188-.09-.094-.082-.147.008-.225a2.39,2.39,0,0,0,.282-.287c.082-.1.129-.074.2.008.368.4.748.795,1.116,1.2.074.082.114.078.184,0,.172-.188.352-.373.536-.553.078-.074.082-.119,0-.2-.235-.238-.454-.487-.689-.725-.09-.09-.114-.147,0-.242.129-.111.243-.328.372-.336.149-.008.254.221.376.348.149.152.294.3.435.463.063.07.1.094.176.008.114-.131.235-.254.36-.373.074-.07.063-.115,0-.18-.372-.389-.736-.786-1.112-1.176-.086-.09-.121-.147-.008-.242.137-.111.239-.348.384-.34.125.008.243.217.364.344.282.3.564.594.842.9.078.086.125.094.2,0a6.632,6.632,0,0,1,.47-.479c.09-.082.078-.131,0-.213-.239-.242-.466-.5-.7-.737-.07-.074-.094-.119,0-.2.137-.123.258-.352.4-.36s.262.233.388.365c.36.381.716.77,1.081,1.151.09.09.086.139,0,.229q-3.013,3.072-6.021,6.156c-.11.111-.149.061-.227-.02q-1.773-1.9-3.551-3.789c-.047-.049-.1-.094-.153-.139A.171.171,0,0,0-.192,237.5Z" transform="translate(0.2 -221.687)" fill="#faf9f2"/><path d="M72.211,46.186c-.822-.377-1.621-.745-2.419-1.114-.767-.352-1.531-.7-2.3-1.053a.89.89,0,0,1-.274-.2q-3.265-3.422-6.538-6.84Q58.82,35.031,56.954,33.1c-.106-.106-.106-.164,0-.27q1.392-1.444,2.776-2.9c.094-.1.137-.094.227,0Q65.125,35.356,70.3,40.788a.515.515,0,0,1,.129.188L72.192,46.1C72.2,46.113,72.2,46.133,72.211,46.186Z" transform="translate(-54.641 -28.627)" fill="#faf9f2"/><path d="M258.9,5.423Q261.554,2.7,264.185,0c1.257,1.339,2.5,2.667,3.751,3.994.11.119,0,.152-.047.2q-1.779,1.831-3.567,3.662c-.474.487-.951.971-1.421,1.462-.082.086-.129.1-.219,0q-.617-.657-1.253-1.3c-.074-.078-.082-.123,0-.2a3.836,3.836,0,0,0,.309-.315c.067-.078.11-.07.176,0,.192.213.4.418.587.635.074.086.121.078.192,0,.133-.156.278-.3.462-.5-.368-.365-.74-.733-1.116-1.1-.082-.082-.094-.131,0-.213.141-.119.247-.36.4-.356.129,0,.251.229.376.36.239.25.478.5.709.758.07.078.114.094.192.008.168-.184.345-.365.525-.537.086-.082.1-.135.008-.229-.2-.2-.388-.414-.583-.614-.07-.07-.074-.115,0-.184.137-.127.254-.352.4-.365s.258.233.392.36c.11.106.215.221.317.336.055.061.1.07.145,0l.012-.012c.141-.147.384-.287.4-.446s-.239-.3-.376-.455c-.223-.246-.454-.492-.685-.729-.063-.066-.067-.1,0-.168.141-.131.262-.356.411-.373s.258.233.388.365c.239.25.478.5.709.758.067.07.106.082.176,0q.323-.344.658-.676c.07-.07.055-.106,0-.168-.779-.827-1.554-1.651-2.329-2.486-.106-.111-.145-.029-.2.033-1.445,1.483-2.889,2.961-4.33,4.452-.125.131-.188.119-.3-.008C259.264,5.78,259.08,5.608,258.9,5.423Z" transform="translate(-248.756)" fill="#faf9f2"/><path d="M321.6,299.558c.572.033,1.084.066,1.617.1-.09-.4-.176-.77-.27-1.171.364.066.709.119,1.049.193.121.025.137-.008.137-.119,0-.471,0-.942,0-1.458a.959.959,0,0,1,.337.434c.3.9.615,1.794.928,2.691a.26.26,0,0,1-.071.319c-.188.176-.36.365-.532.553a.137.137,0,0,1-.192.041q-1.274-.59-2.557-1.172C321.866,299.889,321.772,299.717,321.6,299.558Z" transform="translate(-309.001 -284.931)" fill="#faf9f2"/><path d="M87.206,57.6c.027.029.055.053.082.078.262.274.521.549.787.819.074.074.063.115,0,.184q-.857.891-1.711,1.794c-.063.066-.1.09-.176.008-.254-.279-.517-.549-.783-.819-.059-.061-.078-.1-.008-.172.583-.6,1.163-1.212,1.742-1.819A.6.6,0,0,1,87.206,57.6Z" transform="translate(-82 -55.241)" fill="#faf9f2"/></svg>