<svg xmlns="http://www.w3.org/2000/svg" width="20.466" height="20.349" viewBox="0 0 20.466 20.349"><g transform="translate(0 -1.207)"><path d="M19.983,11.789h-.676V4.78a3.857,3.857,0,0,0-.882-2.752,2.836,2.836,0,0,0-2.141-.821,3.005,3.005,0,0,0-2.992,2.862,2.482,2.482,0,0,0-1.946,1.636.936.936,0,0,0,.094.853.923.923,0,0,0,.8.355h3.183A.8.8,0,0,0,16.1,6.6a1.007,1.007,0,0,0,.085-.884,2.479,2.479,0,0,0-1.924-1.64,2.038,2.038,0,0,1,2.025-1.9c1.385,0,2.058.853,2.058,2.608v7.008H.483a.483.483,0,1,0,0,.965h.579v3.485a3.091,3.091,0,0,0,2.514,3.023,1.583,1.583,0,1,0,2.854.057h7.554a1.583,1.583,0,1,0,2.853-.059,3.081,3.081,0,0,0,2.471-3.02V12.754h.676a.483.483,0,1,0,0-.965Zm-14.994,8.8a.618.618,0,1,1,.618-.618A.618.618,0,0,1,4.989,20.591Zm10.435,0a.618.618,0,1,1,.618-.618A.618.618,0,0,1,15.424,20.591Z" fill="#faf9f2"/><path d="M274.459,132.043a.459.459,0,0,0,.459-.459v-.193a.459.459,0,0,0-.917,0v.193A.459.459,0,0,0,274.459,132.043Z" transform="translate(-260.775 -123.464)" fill="#faf9f2"/><path d="M274,159.585a.459.459,0,1,0,.917,0v-.193a.459.459,0,1,0-.917,0Z" transform="translate(-260.775 -150.113)" fill="#faf9f2"/><path d="M274,188.633a.459.459,0,0,0,.917,0v-.241a.459.459,0,0,0-.917,0Z" transform="translate(-260.775 -177.713)" fill="#faf9f2"/><path d="M247.047,134.138a.458.458,0,0,0,.587-.275l.058-.16a.459.459,0,0,0-.862-.312l-.058.16A.459.459,0,0,0,247.047,134.138Z" transform="translate(-234.835 -125.516)" fill="#faf9f2"/><path d="M237.249,159.835l-.058.16a.459.459,0,1,0,.862.313l.058-.16a.459.459,0,1,0-.862-.313Z" transform="translate(-225.716 -150.683)" fill="#faf9f2"/><path d="M227.485,188.125a.458.458,0,0,0,.587-.275l.058-.16a.459.459,0,0,0-.862-.312l-.058.16A.459.459,0,0,0,227.485,188.125Z" transform="translate(-216.217 -176.897)" fill="#faf9f2"/><path d="M303.073,133.391a.459.459,0,1,0-.862.312l.058.16a.459.459,0,1,0,.862-.312Z" transform="translate(-287.597 -125.516)" fill="#faf9f2"/><path d="M312.655,159.835a.459.459,0,1,0-.862.312l.058.16a.459.459,0,1,0,.862-.312Z" transform="translate(-296.717 -150.683)" fill="#faf9f2"/><path d="M321.773,187.692l.058.16a.459.459,0,1,0,.862-.313l-.058-.16a.459.459,0,0,0-.862.313Z" transform="translate(-306.215 -176.899)" fill="#faf9f2"/></g></svg>