<svg xmlns="http://www.w3.org/2000/svg" width="16.107" height="14.358" viewBox="0 0 16.107 14.358">
  <g id="home" transform="translate(0 -27.797)">
    <path id="Union_1" data-name="Union 1" d="M9.726,14.36a.418.418,0,0,1-.417-.386.314.314,0,0,1,0-.031V9.887a1.256,1.256,0,0,0-2.511,0v4.055c0,.012,0,.023,0,.032a.418.418,0,0,1-.417.385H2.193a.418.418,0,0,1-.418-.418V5.536L.666,6.348a.419.419,0,0,1-.5-.675L7.807.083a.417.417,0,0,1,.494,0l7.635,5.59a.419.419,0,0,1-.247.756.413.413,0,0,1-.247-.081L14.33,5.534v8.408a.418.418,0,0,1-.418.418Z" transform="translate(0 27.795)" fill="#faf9f2"/>
  </g>
</svg>
