<svg xmlns="http://www.w3.org/2000/svg" width="15" height="15.001" viewBox="0 0 15 15.001">
  <path id="Union_3" data-name="Union 3" d="M12951,6883.5a7.5,7.5,0,1,1,7.5,7.5A7.509,7.509,0,0,1,12951,6883.5Zm1.269,0a6.229,6.229,0,1,0,6.231-6.232A6.236,6.236,0,0,0,12952.271,6883.5Zm5.438,4.268v-6.152h1.647v6.152Zm.153-7.128a.822.822,0,0,1-.251-.616.807.807,0,0,1,.244-.609.947.947,0,0,1,.677-.238.934.934,0,0,1,.671.238.871.871,0,0,1,0,1.226,1.062,1.062,0,0,1-1.341,0Z" transform="translate(-12951.002 -6876)" fill="#2999a6"/>
</svg>
