<svg xmlns="http://www.w3.org/2000/svg" width="22.348" height="18.6" viewBox="0 0 22.348 18.6"><g transform="translate(0 -24.903)"><path d="M58.381,101.63a2.359,2.359,0,0,0-.114,1.432H63.35a2.359,2.359,0,0,0-.114-1.432A22,22,0,0,0,58.381,101.63Z" transform="translate(-53.825 -70.829)" fill="#faf9f2"/><path d="M27.483,30.062a.538.538,0,0,1,.414-.293,23.084,23.084,0,0,1,5.72,0,.538.538,0,0,1,.414.293,3.513,3.513,0,0,1,.363,2.17H35.5a3.513,3.513,0,0,1,.363-2.17.538.538,0,0,1,.414-.293,23.084,23.084,0,0,1,5.72,0,.538.538,0,0,1,.414.293,3.513,3.513,0,0,1,.363,2.17h1.412V26.686a24.836,24.836,0,0,0-18.479,0v5.547H27.12A3.512,3.512,0,0,1,27.483,30.062Z" transform="translate(-23.774 0)" fill="#faf9f2"/><path d="M169.756,101.63a2.359,2.359,0,0,0-.114,1.432h5.083a2.359,2.359,0,0,0-.114-1.432A22,22,0,0,0,169.756,101.63Z" transform="translate(-156.819 -70.829)" fill="#faf9f2"/><path d="M1.293,223.45v3.123a.538.538,0,1,0,1.075,0v-3h-.4A1.835,1.835,0,0,1,1.293,223.45Z" transform="translate(-1.196 -183.607)" fill="#faf9f2"/><path d="M21.58,136.6H.768a.768.768,0,0,0-.768.768v4.051a.768.768,0,0,0,.768.768H21.58a.768.768,0,0,0,.768-.768v-4.051A.768.768,0,0,0,21.58,136.6Z" transform="translate(0 -103.29)" fill="#faf9f2"/><path d="M281.823,223.577h-.4v3a.538.538,0,1,0,1.075,0V223.45A1.833,1.833,0,0,1,281.823,223.577Z" transform="translate(-260.243 -183.607)" fill="#faf9f2"/></g></svg>